<?xml version="1.0" encoding="utf-8"?>
<!-- Generator: Adobe Illustrator 21.0.2, SVG Export Plug-In . SVG Version: 6.00 Build 0)  -->
<svg version="1.1" id="Box_copy_10" xmlns="http://www.w3.org/2000/svg" xmlns:xlink="http://www.w3.org/1999/xlink" x="0px"
	 y="0px" viewBox="0 0 1080 1080" style="enable-background:new 0 0 1080 1080;" xml:space="preserve">
<style type="text/css">
	.st0{fill:none;enable-background:new    ;}
	.st1{opacity:0.3;fill:#00F066;}
	.st2{fill:#F9B9CF;}
	.st3{fill:#FFCDBD;}
	.st4{fill:#FFE1BD;}
</style>
<path class="st0" d="z"/>
<g>
	<circle class="st1" cx="543" cy="543.5" r="380.5"/>
	<path id="Polygon_1" class="st2" d="M542.6,542.4l0.2,153.9l-133.1,77.1l-133.4-76.7l-0.2-153.9l133.1-77.1L542.6,542.4z"/>
	<path id="Polygon_1_copy" class="st3" d="M542.8,542.3l-133.1,77.1l-133.4-76.7L409,466L542.8,542.3z"/>
	<path id="Polygon_1_copy_2" class="st4" d="M542,698l-133,77V620l133-77V698z"/>
	<path id="Polygon_1-2" class="st2" d="M808.6,542.4l0.2,153.9l-133.1,77.1l-133.4-76.7l-0.2-153.9l133.1-77.1L808.6,542.4z"/>
	<path id="Polygon_1_copy-2" class="st3" d="M808.8,542.3l-133.1,77.1l-133.4-76.7L675,466L808.8,542.3z"/>
	<path id="Polygon_1_copy_2-2" class="st4" d="M808,697l-133,77V619l133-77V697z"/>
	<path id="Polygon_1-3" class="st2" d="M1094.8,311.3l0.2,153.9l-133.1,77.1l-133.4-76.7l-0.2-153.9l133.1-77.1L1094.8,311.3z"/>
	<path id="Polygon_1_copy-3" class="st3" d="M675.8,311.3l-133.1,77.1l-133.4-76.7L542,235L675.8,311.3z"/>
	<path id="Polygon_1_copy_2-3" class="st4" d="M675,467l-133,77V389l133-77V467z"/>
</g>
</svg>
