<?xml version="1.0" encoding="UTF-8"?>
<svg width="800px" height="800px" viewBox="0 0 800 800" version="1.1" xmlns="http://www.w3.org/2000/svg" xmlns:xlink="http://www.w3.org/1999/xlink">
    <!-- Generator: Sketch 42 (36781) - http://www.bohemiancoding.com/sketch -->
    <title>Artboard Copy</title>
    <desc>Created with Sketch.</desc>
    <defs></defs>
    <g id="Page-1" stroke="none" stroke-width="1" fill="none" fill-rule="evenodd">
        <g id="Artboard-Copy" fill-rule="nonzero">
            <g id="avatar6" transform="translate(13.000000, 20.000000)">
                <g id="Layer_2">
                    <g id="Box_copy_10">
                        <ellipse id="Oval" fill="#2AD07C" cx="387.459264" cy="380.46" rx="387.459264" ry="380.46"></ellipse>
                        <polygon id="Polygon_1" fill="#EC3072" points="386.990802 379.36 387.235217 533.22 251.686597 610.36 115.863009 533.63 115.618594 379.77 251.197766 302.63"></polygon>
                        <polygon id="Polygon_1_copy" fill="#FF6534" points="387.265769 379.22 251.686597 456.36 115.863009 379.63 250.994087 302.92"></polygon>
                        <polygon id="Polygon_1_copy_2" fill="#FFA434" points="386.440867 534.92 250.994087 611.92 250.994087 456.92 386.440867 379.92"></polygon>
                        <polygon id="Polygon_1-2" fill="#EC3072" points="657.884363 379.36 658.128778 533.22 522.580158 610.36 386.75657 533.63 386.512155 379.77 522.091327 302.63"></polygon>
                        <polygon id="Polygon_1_copy-2" fill="#FF6534" points="658.15933 379.22 522.580158 456.36 386.75657 379.63 521.887648 302.92"></polygon>
                        <polygon id="Polygon_1_copy_2-2" fill="#FFA434" points="657.334428 533.92 521.887648 610.92 521.887648 455.92 657.334428 378.92"></polygon>
                        <polygon id="Polygon_1-3" fill="#EC3072" points="522.437582 148.36 522.681997 302.22 387.133377 379.36 251.30979 302.63 251.065375 148.77 386.654731 71.64"></polygon>
                        <polygon id="Polygon_1_copy-3" fill="#FF6534" points="522.712549 148.22 387.133377 225.36 251.30979 148.63 386.440867 71.92"></polygon>
                        <polygon id="Polygon_1_copy_2-3" fill="#FFA434" points="521.887648 303.92 386.440867 380.92 386.440867 225.92 521.887648 148.92"></polygon>
                    </g>
                </g>
            </g>
        </g>
    </g>
</svg>
