<svg xmlns="http://www.w3.org/2000/svg" viewBox="0 0 760.92 760.92"><defs><style>.cls-1{fill:#00f066;opacity:0.3;}.cls-2{fill:#f9b9cf;}.cls-3{fill:#ffcdbd;}.cls-4{fill:#ffe1bd;}</style></defs><title>avatar5</title><g id="Layer_2" data-name="Layer 2"><g id="Box_copy_10" data-name="Box copy 10"><circle class="cls-1" cx="380.46" cy="380.46" r="380.46"/><path id="Polygon_1" data-name="Polygon 1" class="cls-2" d="M380,379.36l.24,153.86L247.14,610.36,113.77,533.63l-.24-153.86,133.13-77.14Z"/><path id="Polygon_1_copy" data-name="Polygon 1 copy" class="cls-3" d="M380.27,379.22,247.14,456.36,113.77,379.63l132.69-76.71Z"/><path id="Polygon_1_copy_2" data-name="Polygon 1 copy 2" class="cls-4" d="M379.46,534.92l-133,77v-155l133-77Z"/><path id="Polygon_1_copy-2" data-name="Polygon 1 copy-2" class="cls-3" d="M646.27,379.22,513.14,456.36,379.77,379.63l132.69-76.71Z"/><path id="Polygon_1_copy_2-2" data-name="Polygon 1 copy 2-2" class="cls-4" d="M645.46,533.92l-133,77v-155l133-77Z"/><path id="Polygon_1-3" data-name="Polygon 1-3" class="cls-2" d="M513,148.36l.24,153.86L380.14,379.36,246.77,302.63l-.24-153.86L379.67,71.64Z"/><path id="Polygon_1_copy-3" data-name="Polygon 1 copy-3" class="cls-3" d="M513.27,148.22,380.14,225.36,246.77,148.63,379.46,71.92Z"/><path id="Polygon_1_copy_2-3" data-name="Polygon 1 copy 2-3" class="cls-4" d="M512.46,303.92l-133,77v-155l133-77Z"/></g></g></svg>